<?xml version="1.0" encoding="utf-8"?>
<!-- Generator: Adobe Illustrator 19.1.1, SVG Export Plug-In . SVG Version: 6.00 Build 0)  -->
<svg version="1.1" id="Слой_2" xmlns="http://www.w3.org/2000/svg" xmlns:xlink="http://www.w3.org/1999/xlink" x="0px" y="0px"
	 viewBox="193 597.1 420.6 175.9" style="enable-background:new 193 597.1 420.6 175.9;" xml:space="preserve">
<path style="fill:#FFCC00;" d="M317.9,618.3c-29-15.8-66.1-11.4-90.7,13.2c-29.9,29.9-29.9,78.4,0,108.4
	c29.9,29.9,78.4,29.9,108.4,0c24.6-24.6,29-61.6,13.2-90.7c-3.4-6.4-7.9-12.3-13.2-17.7C330.2,626.2,324.2,621.8,317.9,618.3
	L317.9,618.3z M257.1,661.4c13.4-13.4,35.2-13.4,48.6,0c13.4,13.4,13.4,35.2,0,48.6s-35.2,13.4-48.6,0
	C243.6,696.6,243.6,674.9,257.1,661.4L257.1,661.4z"/>
<path style="fill:#FE6600;" d="M317.9,618.3c6.4,3.4,12.3,7.9,17.7,13.2s9.8,11.3,13.2,17.7c0.9-0.6,1.6-1.3,2.4-2.1
	c8.6-8.6,8.6-22.6,0-31.2c-8.6-8.6-22.6-8.6-31.2,0C319.2,616.7,318.5,617.5,317.9,618.3L317.9,618.3z"/>
<path style="fill:#673233;" d="M317.9,618.3c-6.5,8.6-5.8,21,2.1,28.8c7.9,7.9,20.2,8.6,28.8,2.1c-3.4-6.4-7.9-12.3-13.2-17.7
	C330.2,626.2,324.2,621.8,317.9,618.3L317.9,618.3z"/>
<path style="fill:#FFFFFF;" d="M421.2,664.3c-0.3-0.8-0.8-1.5-1.4-2.1c-1.3-1.3-3.3-2.1-6.1-2.5l-4-0.5l-1.8-0.4
	c-0.6-0.2-1.1-0.4-1.4-0.6c-0.4-0.3-0.8-0.7-1-1.2c-0.2-0.4-0.3-0.9-0.3-1.5c0-0.6,0.1-1.2,0.4-1.7c0.3-0.5,0.7-0.9,1.2-1.2
	c0.5-0.3,1.1-0.5,1.9-0.7c0.7-0.1,1.6-0.2,2.5-0.2c1.5,0,3,0.2,4.5,0.7l2.1,0.8l0.9,0.5l1.8-2.6l-1.3-0.8c-0.7-0.4-1.6-0.7-2.4-1
	c-0.9-0.3-1.8-0.5-2.7-0.6l-3-0.2c-1.5,0-2.9,0.2-4.2,0.5l-1.7,0.6l-1.4,0.8l-1.1,1l-0.8,1.2l-0.5,1.4l-0.2,1.7
	c0,2.1,0.6,3.8,1.8,4.8c0.6,0.6,1.4,1,2.3,1.4c0.9,0.4,2.1,0.6,3.3,0.8l4.2,0.5l2,0.4c0.6,0.2,1.1,0.4,1.5,0.8
	c0.4,0.3,0.8,0.7,1,1.2c0.2,0.5,0.3,1,0.3,1.5c0,1.3-0.6,2.4-1.8,3.1c-1.1,0.6-2.6,1-4.6,1c-1.8,0-3.5-0.2-5.1-0.6l-2.4-0.9
	l-1.4-0.7l-1.6,3.1l1.7,0.9c0.9,0.4,1.7,0.7,2.6,0.9l2.8,0.5l3.1,0.2l2.6-0.1l2.2-0.4l1.8-0.7l1.5-0.9l1.1-1.1l0.8-1.3l0.5-1.5
	l0.2-1.7C421.7,666,421.5,665.1,421.2,664.3L421.2,664.3z M421.1,703.6c0-2-0.7-3.5-2.1-4.6c-0.7-0.6-1.6-1-2.6-1.3
	c-1.1-0.3-2.3-0.5-3.8-0.5h-11v25.1h12.1c1.6,0,3-0.2,4.2-0.6l1.6-0.7l1.2-0.9l0.9-1l0.6-1.1l0.4-1.3l0.1-1.4c0-1.3-0.3-2.4-1-3.3
	c-0.3-0.5-0.7-0.9-1.1-1.2c-0.4-0.3-0.9-0.6-1.5-0.8l-0.8-0.2V708l0.6-0.3l0.8-0.6l0.7-0.9l0.4-1.2L421.1,703.6L421.1,703.6z
	 M405.7,700.3h7.1c1.4,0,2.5,0.3,3.3,0.9c0.9,0.7,1.3,1.6,1.3,2.9c0,1.2-0.4,2.2-1.3,2.9c-0.4,0.4-0.9,0.6-1.4,0.8
	c-0.5,0.1-1.1,0.2-1.7,0.2h-7.3v-1.1L405.7,700.3L405.7,700.3z M405.7,710.8h8.2c0.7,0,1.4,0.1,2,0.2c0.6,0.2,1.2,0.4,1.6,0.8
	c0.5,0.4,0.9,0.9,1.1,1.4c0.2,0.5,0.4,1.1,0.4,1.8c0,1.4-0.5,2.5-1.4,3.3c-0.9,0.7-2.1,1.1-3.7,1.1h-8.3v-1.1L405.7,710.8
	L405.7,710.8z M471.6,722.3l-10.4-25.1H456l-10.3,25.1h4.3l2-5.4h13.2l2.1,5.4H471.6L471.6,722.3z M459.6,701.2l4.4,12.5h-10.8
	l0.5-1.5l3.9-11.1L459.6,701.2L459.6,701.2z M517.7,719.9v-11h-8.4v3l4.8,0.3v5.9l-0.6,0.3c-1.6,0.8-3.4,1.2-5.5,1.2l-2-0.2
	l-1.8-0.5c-1.2-0.4-2.3-1.1-3.1-1.9l-1.2-1.4l-0.9-1.7c-0.5-1.2-0.7-2.6-0.7-4l0.2-2.1l0.5-1.9l0.9-1.7l1.2-1.4l1.4-1.1l1.7-0.8
	l1.9-0.5l2.1-0.2l2.3,0.2l2.1,0.5c0.7,0.2,1.3,0.5,1.9,0.9l0.8,0.5l2.1-2.7l-1.3-0.9c-0.7-0.4-1.5-0.8-2.3-1.1
	c-0.8-0.3-1.7-0.5-2.6-0.6c-0.9-0.1-1.8-0.2-2.8-0.2c-1.1,0-2.1,0.1-3.1,0.3s-1.9,0.4-2.7,0.8c-0.9,0.4-1.6,0.8-2.4,1.3
	c-0.7,0.5-1.4,1-2,1.6c-0.6,0.6-1.1,1.3-1.6,1.9c-0.5,0.7-0.9,1.4-1.2,2.2c-0.3,0.8-0.6,1.6-0.7,2.5c-0.1,0.9-0.2,1.7-0.2,2.6
	c0,1,0.1,2,0.2,2.9c0.1,0.9,0.4,1.8,0.7,2.6c0.3,0.8,0.7,1.6,1.2,2.2c0.4,0.7,1,1.3,1.6,1.8c0.6,0.6,1.2,1.1,1.9,1.5
	c0.7,0.4,1.5,0.8,2.3,1.1s1.7,0.5,2.6,0.7c0.9,0.1,1.9,0.2,2.9,0.2l2.9-0.2c0.9-0.1,1.8-0.3,2.7-0.6c0.9-0.3,1.7-0.6,2.5-1
	L517.7,719.9L517.7,719.9z M546.5,707.9v-7.3h14.4v-3.3h-18.2v25.1h18.9V719h-15.1v-8h12.8v-3.2L546.5,707.9L546.5,707.9z
	 M590.3,697.2h-3.9v25.1H605v-3.4h-14.7L590.3,697.2L590.3,697.2z M585.6,649.1v25.1h18.9v-3.3h-15.1v-8h12.8v-3.2h-12.8v-7.3h14.4
	v-3.3H585.6L585.6,649.1z M537.3,661.7c0,1,0.1,2,0.2,2.9c0.2,0.9,0.4,1.8,0.7,2.6c0.3,0.8,0.7,1.6,1.2,2.2s1,1.3,1.5,1.8
	c0.6,0.6,1.2,1.1,1.9,1.5c0.7,0.4,1.4,0.8,2.3,1.1c1.6,0.6,3.5,0.9,5.4,0.9c4,0,7.5-1.1,10.2-3.4l-2.1-2.6l-1,0.7
	c-0.7,0.4-1.4,0.8-2.1,1.1c-0.7,0.3-1.5,0.5-2.3,0.6l-2.4,0.2l-2-0.2l-1.9-0.5l-1.7-0.9l-1.4-1.1l-1.2-1.4l-0.9-1.7l-0.5-1.9
	l-0.2-2.1c0-1.4,0.2-2.7,0.7-3.8c0.5-1.2,1.1-2.3,2-3.1l1.4-1.2l1.7-0.9l1.9-0.5l2.1-0.2l2.3,0.2l2.2,0.6l1.9,0.9l0.8,0.5l2.1-2.7
	l-1.3-0.9c-0.7-0.4-1.5-0.8-2.3-1.1c-0.8-0.3-1.7-0.5-2.6-0.7c-0.9-0.1-1.8-0.2-2.9-0.2c-1.1,0-2.2,0.1-3.1,0.3
	c-1,0.2-1.9,0.4-2.7,0.8c-1.7,0.7-3.2,1.6-4.4,2.8c-0.6,0.6-1.1,1.3-1.6,1.9c-0.5,0.7-0.9,1.4-1.2,2.3c-0.3,0.8-0.6,1.6-0.7,2.5
	C537.4,660,537.3,660.8,537.3,661.7L537.3,661.7z M499.1,649.1l-10.3,25.1h4.3l2-5.4h13.2l2.1,5.4h4.4l-10.4-25.1H499.1L499.1,649.1
	z M496.8,664.2l3.9-11.1h2l4.4,12.5h-10.8L496.8,664.2L496.8,664.2z M446.2,649.1v25.1h3.9v-7.4h6.6l2.2-0.1l2-0.5l1.8-0.7l1.5-1
	l1.2-1.3l0.9-1.5l0.6-1.7l0.2-2c0-1.3-0.2-2.6-0.7-3.6l-0.8-1.5l-1.1-1.2l-1.4-1l-1.7-0.8c-1.2-0.4-2.6-0.6-4.1-0.6L446.2,649.1
	L446.2,649.1z M450.1,662.5v-10.1h6.9c1.9,0,3.4,0.5,4.5,1.5c0.5,0.5,0.9,1.1,1.2,1.8c0.3,0.7,0.4,1.4,0.4,2.2
	c0,1.7-0.6,3.1-1.8,4.1c-0.6,0.5-1.3,0.9-2.1,1.1c-0.8,0.2-1.6,0.4-2.5,0.4h-6.6L450.1,662.5L450.1,662.5z"/>
</svg>
